HIERARCHY
ROOT hip
{
OFFSET -0 96.43 -1.50
CHANNELS 6 Xposition Yposition Zposition Zrotation Xrotation Yrotation
JOINT abdomen
{
OFFSET 0 7.23 0
CHANNELS 6 Xposition Yposition Zposition Zrotation Xrotation Yrotation
JOINT chest
{
OFFSET 0 16.54 0
CHANNELS 6 Xposition Yposition Zposition Zrotation Xrotation Yrotation
JOINT neck
{
OFFSET 0 34.21 0
CHANNELS 6 Xposition Yposition Zposition Zrotation Xrotation Yrotation
JOINT head
{
OFFSET 0 6.29 0
CHANNELS 6 Xposition Yposition Zposition Zrotation Xrotation Yrotation
End Site
{
OFFSET 0 21.21 0
}
}
}
JOINT lCollar
{
OFFSET 4.06 26.61 -1.12
CHANNELS 6 Xposition Yposition Zposition Zrotation Xrotation Yrotation
JOINT lShldr
{
OFFSET 14.17 0 0
CHANNELS 6 Xposition Yposition Zposition Zrotation Xrotation Yrotation
JOINT lForeArm
{
OFFSET 26.12 0 0
CHANNELS 6 Xposition Yposition Zposition Zrotation Xrotation Yrotation
JOINT lHand
{
OFFSET 27.71 0 0
CHANNELS 6 Xposition Yposition Zposition Zrotation Xrotation Yrotation
JOINT lThumb1
{
OFFSET 2.29 -0.46 1.83
CHANNELS 6 Xposition Yposition Zposition Zrotation Xrotation Yrotation
JOINT lThumb2
{
OFFSET 5.29 0 0
CHANNELS 6 Xposition Yposition Zposition Zrotation Xrotation Yrotation
JOINT lThumb3
{
OFFSET 3.01 0 0
CHANNELS 6 Xposition Yposition Zposition Zrotation Xrotation Yrotation
End Site
{
OFFSET 2.62 0 0
}
}
}
}
JOINT lIndex1
{
OFFSET 9.37 0.29 2.59
CHANNELS 6 Xposition Yposition Zposition Zrotation Xrotation Yrotation
JOINT lIndex2
{
OFFSET 4.34 0 0
CHANNELS 6 Xposition Yposition Zposition Zrotation Xrotation Yrotation
JOINT lIndex3
{
OFFSET 2.16 0 0
CHANNELS 6 Xposition Yposition Zposition Zrotation Xrotation Yrotation
End Site
{
OFFSET 2.20 0 0
}
}
}
}
JOINT lMid1
{
OFFSET 9.47 0.83 0.29
CHANNELS 6 Xposition Yposition Zposition Zrotation Xrotation Yrotation
JOINT lMid2
{
OFFSET 4.77 0 0
CHANNELS 6 Xposition Yposition Zposition Zrotation Xrotation Yrotation
JOINT lMid3
{
OFFSET 2.87 0 0
CHANNELS 6 Xposition Yposition Zposition Zrotation Xrotation Yrotation
End Site
{
OFFSET 2.09 0 0
}
}
}
}
JOINT lRing1
{
OFFSET 8.65 1.01 -1.70
CHANNELS 6 Xposition Yposition Zposition Zrotation Xrotation Yrotation
JOINT lRing2
{
OFFSET 4.54 0 0
CHANNELS 6 Xposition Yposition Zposition Zrotation Xrotation Yrotation
JOINT lRing3
{
OFFSET 2.50 0 0
CHANNELS 6 Xposition Yposition Zposition Zrotation Xrotation Yrotation
End Site
{
OFFSET 2.20 0 0
}
}
}
}
JOINT lPinky1
{
OFFSET 7.69 0.66 -3.90
CHANNELS 6 Xposition Yposition Zposition Zrotation Xrotation Yrotation
JOINT lPinky2
{
OFFSET 3.21 0 0
CHANNELS 6 Xposition Yposition Zposition Zrotation Xrotation Yrotation
JOINT lPinky3
{
OFFSET 1.92 0 0
CHANNELS 6 Xposition Yposition Zposition Zrotation Xrotation Yrotation
End Site
{
OFFSET 1.78 0 0
}
}
}
}
}
}
}
}
JOINT rCollar
{
OFFSET -4.06 26.61 -1.12
CHANNELS 6 Xposition Yposition Zposition Zrotation Xrotation Yrotation
JOINT rShldr
{
OFFSET -14.17 0 0
CHANNELS 6 Xposition Yposition Zposition Zrotation Xrotation Yrotation
JOINT rForeArm
{
OFFSET -26.12 0 0
CHANNELS 6 Xposition Yposition Zposition Zrotation Xrotation Yrotation
JOINT rHand
{
OFFSET -27.71 0 0
CHANNELS 6 Xposition Yposition Zposition Zrotation Xrotation Yrotation
JOINT rThumb1
{
OFFSET -2.29 -0.46 1.83
CHANNELS 6 Xposition Yposition Zposition Zrotation Xrotation Yrotation
JOINT rThumb2
{
OFFSET -5.29 0 0
CHANNELS 6 Xposition Yposition Zposition Zrotation Xrotation Yrotation
JOINT rThumb3
{
OFFSET -3.01 0 0
CHANNELS 6 Xposition Yposition Zposition Zrotation Xrotation Yrotation
End Site
{
OFFSET -2.62 0 0
}
}
}
}
JOINT rIndex1
{
OFFSET -9.37 0.29 2.59
CHANNELS 6 Xposition Yposition Zposition Zrotation Xrotation Yrotation
JOINT rIndex2
{
OFFSET -4.34 0 0
CHANNELS 6 Xposition Yposition Zposition Zrotation Xrotation Yrotation
JOINT rIndex3
{
OFFSET -2.16 0 0
CHANNELS 6 Xposition Yposition Zposition Zrotation Xrotation Yrotation
End Site
{
OFFSET -2.20 0 0
}
}
}
}
JOINT rMid1
{
OFFSET -9.47 0.83 0.29
CHANNELS 6 Xposition Yposition Zposition Zrotation Xrotation Yrotation
JOINT rMid2
{
OFFSET -4.77 0 0
CHANNELS 6 Xposition Yposition Zposition Zrotation Xrotation Yrotation
JOINT rMid3
{
OFFSET -2.87 0 0
CHANNELS 6 Xposition Yposition Zposition Zrotation Xrotation Yrotation
End Site
{
OFFSET -2.09 0 0
}
}
}
}
JOINT rRing1
{
OFFSET -8.65 1.01 -1.70
CHANNELS 6 Xposition Yposition Zposition Zrotation Xrotation Yrotation
JOINT rRing2
{
OFFSET -4.54 0 0
CHANNELS 6 Xposition Yposition Zposition Zrotation Xrotation Yrotation
JOINT rRing3
{
OFFSET -2.50 0 0
CHANNELS 6 Xposition Yposition Zposition Zrotation Xrotation Yrotation
End Site
{
OFFSET -2.20 0 0
}
}
}
}
JOINT rPinky1
{
OFFSET -7.69 0.66 -3.90
CHANNELS 6 Xposition Yposition Zposition Zrotation Xrotation Yrotation
JOINT rPinky2
{
OFFSET -3.21 0 0
CHANNELS 6 Xposition Yposition Zposition Zrotation Xrotation Yrotation
JOINT rPinky3
{
OFFSET -1.92 0 0
CHANNELS 6 Xposition Yposition Zposition Zrotation Xrotation Yrotation
End Site
{
OFFSET -1.78 0 0
}
}
}
}
}
}
}
}
}
}
JOINT lThigh
{
OFFSET 8.73 -0 0
CHANNELS 6 Xposition Yposition Zposition Zrotation Xrotation Yrotation
JOINT lShin
{
OFFSET 0 -46.66 0
CHANNELS 6 Xposition Yposition Zposition Zrotation Xrotation Yrotation
JOINT lFoot
{
OFFSET 0 -40.14 0
CHANNELS 6 Xposition Yposition Zposition Zrotation Xrotation Yrotation
JOINT lToes
{
OFFSET 0 -8.88 14.22
CHANNELS 6 Xposition Yposition Zposition Zrotation Xrotation Yrotation
End Site
{
OFFSET 0 0 6.29
}
}
}
}
}
JOINT rThigh
{
OFFSET -8.73 0 -0
CHANNELS 6 Xposition Yposition Zposition Zrotation Xrotation Yrotation
JOINT rShin
{
OFFSET 0 -46.66 0
CHANNELS 6 Xposition Yposition Zposition Zrotation Xrotation Yrotation
JOINT rFoot
{
OFFSET 0 -40.14 0
CHANNELS 6 Xposition Yposition Zposition Zrotation Xrotation Yrotation
JOINT rToes
{
OFFSET 0 -8.88 14.22
CHANNELS 6 Xposition Yposition Zposition Zrotation Xrotation Yrotation
End Site
{
OFFSET 0 0 6.29
}
}
}
}
}
}
MOTION
Frames: 4
Frame Time: 0.03
-0 96.43 -1.50 1.51 -5.16 1.72 0 7.23 0 -1.24 1.23 -1.38 0 16.54 0 -2.24 4.35 -2.62 0 34.21 0 2.75 25.84 1.53 0 6.29 0 -0.95 -18.61 -2.00 4.06 26.61 -1.12 2.03 -4.25 1.06 14.17 0 0 -87.10 21.39 14.09 26.12 0 0 -0.27 0.04 -18.92 27.71 0 0 -2.24 -28.10 5.32 2.29 -0.46 1.83 77.43 75.30 -89.67 5.29 0 0 -13.65 2.43 4.23 3.01 0 0 38.54 5.09 3.63 9.37 0.29 2.59 -7.74 -1.73 2.94 4.34 0 0 -9.95 0.09 2.05 2.16 0 0 -12.11 -0.25 2.00 9.47 0.83 0.29 -7.15 -4.50 3.17 4.77 0 0 -31.68 -2.13 7.83 2.87 0 0 -19.92 -0.77 6.45 8.65 1.01 -1.70 -15.32 1.70 4.48 4.54 0 0 -36.00 -1.51 4.64 2.50 0 0 -23.08 -0.57 4.02 7.69 0.66 -3.90 -12.94 -9.47 4.32 3.21 0 0 -35.33 -3.70 11.59 1.92 0 0 -25.02 -1.82 9.98 -4.06 26.61 -1.12 6.18 -4.11 1.61 -14.17 0 0 78.01 2.88 -12.33 -26.12 0 0 0.19 0.02 13.06 -27.71 0 0 -11.67 -9.32 3.73 -2.29 -0.46 1.83 -80.73 75.77 111.05 -5.29 0 0 15.30 2.21 -5.46 -3.01 0 0 -10.61 3.29 -16.01 -9.37 0.29 2.59 58.87 -7.07 -8.64 -4.34 0 0 78.82 -8.38 -10.53 -2.16 0 0 81.02 -8.82 -9.93 -9.47 0.83 0.29 58.44 -9.84 -8.71 -4.77 0 0 77.73 -10.73 -13.41 -2.87 0 0 73.86 -9.75 -14.41 -8.65 1.01 -1.70 59.46 -3.21 -8.59 -4.54 0 0 79.84 -5.51 -6.59 -2.50 0 0 73.10 -4.70 -7.19 -7.69 0.66 -3.90 57.72 -14.40 -8.86 -3.21 0 0 75.42 -14.20 -18.30 -1.92 0 0 71.13 -12.77 -19.30 8.73 -0 0 -0.67 -1.07 14.23 0 -46.66 0 1.74 15.79 -2.69 0 -40.14 0 0.26 -9.48 7.91 0 -8.88 14.22 0 0 0 -8.73 0 -0 -7.62 -3.11 -24.06 0 -46.66 0 -3.24 17.56 6.88 0 -40.14 0 3.97 -7.87 -7.85 0 -8.88 14.22 0 0 -0 
-0.06 96.48 -1.33 1.41 -5.26 2.06 0 7.23 0 -1.21 1.17 -1.40 0 16.54 0 -2.21 4.24 -2.66 0 34.21 0 2.76 25.79 1.65 0 6.29 0 -0.95 -18.59 -1.26 4.06 26.61 -1.12 2.03 -4.21 1.09 14.17 0 0 -86.95 21.27 14.37 26.12 0 0 -0.28 0.04 -19.20 27.71 0 0 -2.21 -28.11 5.53 2.29 -0.46 1.83 77.43 75.30 -89.67 5.29 0 0 -13.65 2.43 4.23 3.01 0 0 38.54 5.09 3.63 9.37 0.29 2.59 -7.74 -1.73 2.94 4.34 0 0 -9.95 0.09 2.05 2.16 0 0 -12.11 -0.25 2.00 9.47 0.83 0.29 -7.15 -4.50 3.17 4.77 0 0 -31.68 -2.13 7.83 2.87 0 0 -19.92 -0.77 6.45 8.65 1.01 -1.70 -15.32 1.70 4.48 4.54 0 0 -36.00 -1.51 4.64 2.50 0 0 -23.08 -0.57 4.02 7.69 0.66 -3.90 -12.94 -9.47 4.32 3.21 0 0 -35.33 -3.70 11.59 1.92 0 0 -25.02 -1.82 9.98 -4.06 26.61 -1.12 6.21 -4.09 1.56 -14.17 0 0 78.09 2.78 -12.64 -26.12 0 0 0.19 0.02 13.39 -27.71 0 0 -11.97 -9.41 3.51 -2.29 -0.46 1.83 -80.73 75.77 111.05 -5.29 0 0 15.30 2.21 -5.46 -3.01 0 0 -10.61 3.29 -16.01 -9.37 0.29 2.59 58.87 -7.07 -8.64 -4.34 0 0 78.82 -8.38 -10.53 -2.16 0 0 81.02 -8.82 -9.93 -9.47 0.83 0.29 58.44 -9.84 -8.71 -4.77 0 0 77.73 -10.73 -13.41 -2.87 0 0 73.86 -9.75 -14.41 -8.65 1.01 -1.70 59.46 -3.21 -8.59 -4.54 0 0 79.84 -5.51 -6.59 -2.50 0 0 73.10 -4.70 -7.19 -7.69 0.66 -3.90 57.72 -14.40 -8.86 -3.21 0 0 75.42 -14.20 -18.30 -1.92 0 0 71.13 -12.77 -19.30 8.73 -0 0 -0.48 -0.75 14.19 0 -46.66 0 1.64 15.51 -2.98 0 -40.14 0 0.28 -9.40 7.90 0 -8.88 14.22 0 0 -0 -8.73 0 -0 -7.41 -2.57 -24.19 0 -46.66 0 -3.08 17.02 6.60 0 -40.14 0 3.94 -7.72 -7.86 0 -8.88 14.22 0 0 -0 
-0.14 96.52 -1.17 1.31 -5.32 2.41 0 7.23 0 -1.18 1.13 -1.42 0 16.54 0 -2.19 4.16 -2.68 0 34.21 0 2.78 25.71 1.77 0 6.29 0 -0.86 -18.75 -0.49 4.06 26.61 -1.12 2.04 -4.18 1.10 14.17 0 0 -86.84 21.20 14.57 26.12 0 0 -0.28 0.04 -19.51 27.71 0 0 -2.16 -28.11 5.70 2.29 -0.46 1.83 77.43 75.30 -89.67 5.29 0 0 -13.65 2.43 4.23 3.01 0 0 38.54 5.09 3.63 9.37 0.29 2.59 -7.74 -1.73 2.94 4.34 0 0 -9.95 0.09 2.05 2.16 0 0 -12.11 -0.25 2.00 9.47 0.83 0.29 -7.15 -4.50 3.17 4.77 0 0 -31.68 -2.13 7.83 2.87 0 0 -19.92 -0.77 6.45 8.65 1.01 -1.70 -15.32 1.70 4.48 4.54 0 0 -36.00 -1.51 4.64 2.50 0 0 -23.08 -0.57 4.02 7.69 0.66 -3.90 -12.94 -9.47 4.32 3.21 0 0 -35.33 -3.70 11.59 1.92 0 0 -25.02 -1.82 9.98 -4.06 26.61 -1.12 6.23 -4.06 1.53 -14.17 0 0 78.17 2.75 -12.89 -26.12 0 0 0.20 0.02 13.69 -27.71 0 0 -12.23 -9.49 3.36 -2.29 -0.46 1.83 -80.73 75.77 111.05 -5.29 0 0 15.30 2.21 -5.46 -3.01 0 0 -10.61 3.29 -16.01 -9.37 0.29 2.59 58.87 -7.07 -8.64 -4.34 0 0 78.82 -8.38 -10.53 -2.16 0 0 81.02 -8.82 -9.93 -9.47 0.83 0.29 58.44 -9.84 -8.71 -4.77 0 0 77.73 -10.73 -13.41 -2.87 0 0 73.86 -9.75 -14.41 -8.65 1.01 -1.70 59.46 -3.21 -8.59 -4.54 0 0 79.84 -5.51 -6.59 -2.50 0 0 73.10 -4.70 -7.19 -7.69 0.66 -3.90 57.72 -14.40 -8.86 -3.21 0 0 75.42 -14.20 -18.30 -1.92 0 0 71.13 -12.77 -19.30 8.73 -0 0 -0.27 -0.51 14.16 0 -46.66 0 1.55 15.29 -3.30 0 -40.14 0 0.30 -9.34 7.90 0 -8.88 14.22 0 0 0 -8.73 0 -0 -7.21 -2.12 -24.31 0 -46.66 0 -2.93 16.57 6.33 0 -40.14 0 3.91 -7.56 -7.88 0 -8.88 14.22 0 0 -0 
-0.23 96.56 -1.03 1.21 -5.36 2.75 0 7.23 0 -1.15 1.10 -1.42 0 16.54 0 -2.17 4.10 -2.68 0 34.21 0 2.82 25.62 1.91 0 6.29 0 -0.77 -19.09 0.41 4.06 26.61 -1.12 2.04 -4.16 1.10 14.17 0 0 -86.75 21.21 14.70 26.12 0 0 -0.29 0.05 -19.91 27.71 0 0 -2.12 -28.13 5.84 2.29 -0.46 1.83 77.43 75.30 -89.67 5.29 0 0 -13.65 2.43 4.23 3.01 0 0 38.54 5.09 3.63 9.37 0.29 2.59 -7.74 -1.73 2.94 4.34 0 0 -9.95 0.09 2.05 2.16 0 0 -12.11 -0.25 2.00 9.47 0.83 0.29 -7.15 -4.50 3.17 4.77 0 0 -31.68 -2.13 7.83 2.87 0 0 -19.92 -0.77 6.45 8.65 1.01 -1.70 -15.32 1.70 4.48 4.54 0 0 -36.00 -1.51 4.64 2.50 0 0 -23.08 -0.57 4.02 7.69 0.66 -3.90 -12.94 -9.47 4.32 3.21 0 0 -35.33 -3.70 11.59 1.92 0 0 -25.02 -1.82 9.98 -4.06 26.61 -1.12 6.26 -4.05 1.52 -14.17 0 0 78.24 2.74 -13.07 -26.12 0 0 0.20 0.02 13.97 -27.71 0 0 -12.42 -9.58 3.19 -2.29 -0.46 1.83 -80.73 75.77 111.05 -5.29 0 0 15.30 2.21 -5.46 -3.01 0 0 -10.61 3.29 -16.01 -9.37 0.29 2.59 58.87 -7.07 -8.64 -4.34 0 0 78.82 -8.38 -10.53 -2.16 0 0 81.02 -8.82 -9.93 -9.47 0.83 0.29 58.44 -9.84 -8.71 -4.77 0 0 77.73 -10.73 -13.41 -2.87 0 0 73.86 -9.75 -14.41 -8.65 1.01 -1.70 59.46 -3.21 -8.59 -4.54 0 0 79.84 -5.51 -6.59 -2.50 0 0 73.10 -4.70 -7.19 -7.69 0.66 -3.90 57.72 -14.40 -8.86 -3.21 0 0 75.42 -14.20 -18.30 -1.92 0 0 71.13 -12.77 -19.30 8.73 -0 0 -0.05 -0.34 14.14 0 -46.66 0 1.46 15.17 -3.62 0 -40.14 0 0.36 -9.33 7.90 0 -8.88 14.22 0 0 0 -8.73 0 -0 -7.01 -1.72 -24.42 0 -46.66 0 -2.78 16.14 6.06 0 -40.14 0 3.87 -7.44 -7.89 0 -8.88 14.22 0 0 0 
